<?xml version="1.0" standalone="no"?>
<!DOCTYPE svg PUBLIC "-//W3C//DTD SVG 20010904//EN"
 "http://www.w3.org/TR/2001/REC-SVG-20010904/DTD/svg10.dtd">
<svg version="1.0" xmlns="http://www.w3.org/2000/svg"
 width="1128.000000pt" height="323.000000pt" viewBox="0 0 1128.000000 323.000000"
 preserveAspectRatio="xMidYMid meet">

<g transform="translate(0.000000,323.000000) scale(0.100000,-0.100000)"
fill="#000000" stroke="none">
<path d="M8415 2775 c-94 -17 -230 -67 -338 -122 l-87 -45 -53 21 c-247 100
-543 49 -835 -143 -246 -163 -447 -423 -513 -664 -28 -99 -23 -222 10 -299
l23 -53 -30 -47 c-62 -97 -94 -179 -126 -325 -6 -28 -7 -28 -89 -28 -135 -1
-235 -31 -257 -78 -10 -24 -9 -29 15 -49 19 -17 40 -23 78 -24 76 -2 156 1
210 7 44 6 47 5 47 -18 0 -44 41 -172 78 -242 121 -231 376 -340 588 -251 20
8 34 18 31 21 -3 4 -25 -1 -49 -11 -102 -40 -246 -26 -352 35 -66 37 -145 119
-191 195 -37 62 -80 184 -87 244 l-3 34 71 22 c40 12 92 34 118 48 44 24 48
25 97 12 149 -40 370 -44 534 -10 422 87 782 388 933 780 120 313 58 606 -161
766 l-38 27 73 46 c231 143 445 190 581 126 55 -26 102 -78 111 -122 17 -86
-60 -191 -144 -198 -58 -5 -82 1 -105 26 -14 15 -25 38 -25 50 0 13 -4 24 -10
24 -13 0 -13 -10 1 -49 18 -51 92 -79 162 -60 73 20 137 106 137 184 -1 36
-37 102 -72 128 -69 53 -193 68 -333 42z m-505 -156 l64 -22 -24 -16 c-192
-125 -429 -351 -596 -566 -122 -158 -165 -222 -324 -480 -156 -254 -238 -377
-292 -438 l-43 -49 -65 11 c-36 6 -82 11 -102 11 -20 0 -39 4 -42 9 -18 28 79
288 130 349 l19 22 49 -25 c63 -32 109 -32 175 1 62 31 111 92 111 137 0 42
-35 77 -75 77 -44 0 -144 -52 -203 -106 l-50 -44 -17 43 c-75 183 34 465 273
710 201 205 433 341 672 392 94 21 257 13 340 -16z m190 -105 c49 -45 94 -114
122 -190 18 -49 21 -80 21 -189 1 -113 -3 -142 -27 -219 -53 -174 -136 -322
-270 -479 -231 -270 -584 -437 -922 -437 -83 0 -254 22 -276 36 -5 3 19 36 55
73 84 87 204 250 373 506 170 258 243 361 349 490 105 127 306 323 414 403 93
69 91 69 161 6z m-1164 -907 c23 -20 26 -28 20 -59 -13 -72 -132 -149 -205
-133 -38 8 -91 42 -91 59 0 27 118 117 187 142 52 18 58 17 89 -9z m-476 -606
l0 -59 -86 -7 c-104 -9 -209 -2 -230 15 -8 8 -14 22 -12 33 6 42 112 74 256
76 l72 1 0 -59z m173 43 c29 -5 35 -9 27 -19 -12 -14 -111 -60 -151 -70 -24
-6 -27 -4 -30 27 -2 18 -3 44 -1 57 4 22 6 23 60 17 31 -4 74 -9 95 -12z"/>
<path d="M3355 2739 c-247 -82 -460 -223 -697 -461 l-137 -139 -56 46 c-104
85 -202 119 -324 114 -96 -5 -159 -35 -205 -97 -28 -40 -31 -51 -31 -120 0
-57 5 -88 20 -117 45 -92 164 -173 267 -183 26 -2 48 -7 48 -11 0 -3 -15 -29
-33 -56 -19 -28 -101 -158 -184 -290 -235 -377 -329 -503 -483 -648 -105 -99
-214 -168 -315 -200 -55 -17 -94 -22 -180 -22 -149 0 -239 31 -339 113 -245
202 -238 599 14 853 123 125 245 174 409 167 119 -6 191 -32 260 -94 112 -101
138 -263 64 -413 -34 -71 -125 -161 -196 -195 -88 -41 -194 -33 -236 18 -17
20 -32 21 -25 1 9 -23 83 -62 131 -70 51 -8 150 16 209 50 63 37 131 112 167
184 29 60 32 74 32 161 0 79 -4 103 -23 142 -61 124 -185 208 -340 230 -71 11
-95 10 -163 -4 -277 -58 -474 -289 -496 -583 -20 -273 132 -494 384 -560 77
-20 249 -19 332 1 149 37 302 127 445 264 144 137 270 308 503 681 182 291
170 277 264 321 45 21 80 41 77 43 -3 3 -25 -4 -49 -15 -82 -37 -85 -27 -19
63 34 45 73 97 89 116 l27 33 33 -50 32 -50 -65 -99 c-237 -366 -332 -749
-236 -948 31 -65 70 -89 151 -93 59 -4 74 -1 119 24 93 51 137 135 176 341 3
16 14 23 44 28 59 10 147 72 225 158 47 52 77 77 92 77 32 0 113 29 145 51 14
11 28 19 31 19 3 0 -8 -27 -25 -60 -18 -38 -32 -83 -35 -119 -5 -54 -3 -60 25
-92 28 -31 35 -34 85 -33 74 0 146 45 246 150 66 71 82 82 120 88 24 4 62 15
84 26 22 11 42 20 43 20 2 0 -15 -35 -37 -77 -48 -93 -59 -151 -35 -188 32
-49 99 -24 215 81 30 27 52 43 48 37 -5 -7 -45 -66 -90 -132 -78 -114 -88
-123 -202 -206 -301 -219 -489 -408 -566 -570 -64 -133 -20 -179 107 -115 126
62 317 284 612 707 90 128 95 133 224 229 73 53 180 136 237 183 57 47 110 92
119 98 9 7 13 15 10 18 -3 3 -51 -32 -106 -79 -92 -77 -315 -249 -352 -271 -8
-5 20 41 61 101 166 240 329 482 329 488 0 3 -8 6 -18 6 -21 0 -103 -94 -227
-260 -94 -125 -231 -265 -298 -304 -154 -90 -70 105 195 453 44 57 76 107 71
112 -15 15 -75 -34 -143 -117 -117 -140 -154 -177 -205 -200 -27 -13 -64 -24
-81 -24 l-31 0 23 48 c51 108 50 225 -2 271 -24 20 -35 23 -80 18 l-52 -5 43
61 c26 38 87 99 156 157 236 198 508 480 559 581 23 43 26 89 8 107 -21 21
-80 13 -135 -18 -136 -78 -315 -300 -683 -845 -96 -144 -193 -277 -216 -298
-49 -44 -117 -76 -160 -77 l-31 0 23 48 c32 67 47 162 34 211 -16 60 -53 84
-117 78 l-51 -5 43 61 c26 38 87 99 156 157 239 200 507 479 559 581 55 107
-7 154 -122 92 -137 -74 -358 -352 -753 -946 -65 -97 -119 -176 -121 -174 -1
1 -12 50 -24 107 -12 58 -33 133 -46 168 l-25 62 22 37 c40 65 210 285 314
408 134 158 305 320 388 369 99 57 89 60 -48 15z m418 -50 c15 -23 2 -59 -45
-129 -68 -103 -324 -357 -567 -564 -33 -28 -28 -20 138 214 239 339 310 427
381 472 48 31 77 33 93 7z m570 0 c15 -23 2 -59 -45 -129 -68 -103 -324 -357
-567 -564 -33 -28 -28 -20 138 214 239 339 310 427 381 472 48 31 77 33 93 7z
m-1093 -40 c-191 -155 -360 -335 -541 -575 l-71 -95 -33 48 -32 48 41 50 c171
207 405 409 599 516 61 34 71 36 37 8z m-941 -388 c55 -22 110 -57 171 -109
l35 -30 -61 -73 c-33 -41 -86 -108 -118 -150 -57 -76 -57 -77 -92 -69 -116 26
-235 95 -286 167 -75 103 -29 235 97 282 47 17 191 7 254 -18z m395 -459 c13
-42 31 -119 40 -169 l15 -93 -35 -70 c-24 -47 -38 -89 -41 -128 -5 -52 -3 -61
22 -90 15 -18 33 -32 41 -32 38 0 -13 -199 -75 -291 -41 -60 -90 -90 -160 -97
-40 -3 -52 0 -78 22 -51 43 -68 103 -67 231 1 181 43 334 146 540 56 112 150
265 160 259 4 -3 18 -39 32 -82z m417 -12 c5 0 18 -15 29 -32 35 -58 23 -188
-18 -188 -36 0 -55 -34 -48 -84 l7 -44 -78 -80 c-81 -82 -145 -125 -200 -135
l-32 -6 3 117 3 117 59 99 c92 153 198 254 252 240 8 -2 18 -4 23 -4z m570 0
c5 0 18 -15 29 -32 35 -58 23 -188 -18 -188 -36 0 -55 -34 -48 -84 l7 -45 -83
-84 c-113 -113 -214 -158 -263 -117 -27 23 -13 101 38 200 116 228 247 375
315 354 8 -2 18 -4 23 -4z m-926 -548 c-4 -12 -8 -12 -21 -1 -19 15 -15 85 8
134 12 28 13 26 16 -44 2 -41 0 -81 -3 -89z m955 -363 c-154 -220 -266 -363
-356 -455 -126 -131 -221 -144 -180 -25 49 144 240 350 521 561 72 54 131 97
133 95 2 -2 -52 -81 -118 -176z"/>
<path d="M6013 1768 c-48 -61 -138 -183 -158 -216 -60 -97 -113 -167 -164
-215 -34 -31 -59 -57 -56 -57 3 0 29 21 57 48 l51 47 -6 -33 c-8 -39 6 -72 31
-72 16 1 16 1 0 11 -15 9 -16 13 -2 51 14 40 112 193 253 396 79 112 75 140
-6 40z"/>
<path d="M8617 1809 c-57 -13 -95 -36 -155 -93 -104 -98 -196 -255 -221 -377
-16 -76 6 -129 54 -129 35 0 138 74 200 143 l55 62 -15 -44 c-32 -91 -13 -161
44 -161 53 0 187 87 299 193 34 33 62 57 62 53 0 -4 -34 -55 -76 -113 -81
-112 -91 -135 -61 -141 27 -5 40 10 145 158 144 203 323 378 436 425 33 14 36
14 36 -2 0 -9 -45 -83 -99 -164 -175 -259 -202 -345 -126 -395 24 -15 28 -15
68 0 45 17 143 91 236 180 l54 51 -46 -65 c-105 -146 -119 -169 -113 -179 14
-22 46 -10 79 32 19 23 67 89 107 147 121 173 307 350 414 395 33 14 36 14 36
-2 0 -9 -45 -83 -99 -164 -175 -259 -202 -345 -126 -395 24 -15 28 -15 68 0
51 19 150 97 260 205 l78 76 -41 -80 c-49 -95 -60 -153 -36 -190 33 -50 101
-23 220 86 l59 54 -78 -115 c-44 -63 -86 -125 -96 -137 -9 -12 -70 -61 -135
-109 -302 -219 -488 -407 -565 -569 -105 -218 98 -182 309 56 125 141 228 275
410 536 90 128 96 135 218 224 188 137 381 296 371 305 -2 3 -51 -34 -108 -82
-94 -79 -313 -248 -348 -269 -13 -7 40 72 292 440 103 150 106 155 80 155 -22
0 -100 -89 -228 -259 -95 -126 -232 -267 -298 -305 -154 -90 -70 105 195 453
46 60 76 107 70 113 -14 14 -82 -43 -147 -123 -89 -111 -331 -348 -414 -407
-76 -53 -109 -63 -130 -38 -20 24 9 82 126 262 120 183 149 240 139 279 -15
60 -117 16 -281 -122 l-50 -42 39 79 c37 76 42 110 13 110 -7 0 -21 -17 -31
-37 -9 -20 -46 -80 -81 -133 -71 -108 -239 -277 -358 -361 -71 -50 -106 -60
-125 -36 -20 24 6 80 109 238 105 159 159 255 159 282 0 89 -103 53 -285 -100
l-50 -42 39 79 c37 75 42 110 14 110 -7 0 -32 -35 -56 -78 -66 -120 -135 -205
-251 -308 -137 -123 -226 -184 -280 -191 -32 -4 -41 -2 -41 9 0 52 77 193 224
411 48 70 84 132 81 138 -11 16 -34 10 -68 -21 -32 -27 -35 -28 -40 -11 -10
40 -78 64 -140 50z m121 -37 c6 -9 12 -24 12 -33 0 -10 -43 -81 -95 -157 -174
-256 -385 -433 -385 -323 0 34 66 171 121 254 154 228 291 330 347 259z m1342
-879 c-147 -211 -280 -381 -366 -470 -126 -130 -221 -143 -180 -24 49 144 239
349 516 557 68 52 128 94 132 94 4 0 -42 -71 -102 -157z"/>
<path d="M5028 1580 c-93 -50 -202 -260 -154 -299 8 -7 21 -11 28 -8 8 4 7 6
-4 6 -26 1 -22 19 18 100 47 93 159 214 195 209 43 -6 35 -40 -30 -131 -33
-46 -83 -105 -112 -131 -28 -25 -48 -46 -45 -46 4 0 28 20 55 45 l47 44 0 -47
c-1 -43 1 -47 24 -49 14 -1 18 0 8 3 -10 3 -18 10 -18 15 0 19 60 128 114 207
31 45 56 84 56 87 0 11 -28 4 -40 -10 -11 -14 -14 -13 -27 5 -18 26 -66 26
-115 0z"/>
<path d="M5347 1542 c-20 -33 -58 -84 -84 -113 -27 -30 -39 -47 -29 -39 11 8
2 -10 -20 -40 -57 -78 -58 -80 -37 -80 12 0 46 37 93 101 41 56 99 122 130
147 70 58 79 67 60 57 -8 -4 -35 -24 -58 -43 l-44 -35 22 43 c35 68 9 70 -33
2z"/>
<path d="M5486 1591 c-4 -5 4 -7 16 -3 25 6 26 9 -42 -93 -85 -127 -106 -185
-78 -213 7 -7 19 -12 27 -12 11 0 10 3 -4 14 -24 17 -17 34 59 151 67 101 76
119 76 144 0 16 -6 21 -24 21 -14 0 -27 -4 -30 -9z"/>
<path d="M5729 1568 c-24 -19 -66 -62 -94 -95 -46 -57 -123 -130 -185 -176
-25 -18 -25 -18 5 -1 17 9 54 37 82 62 53 44 53 44 42 14 -6 -17 -9 -45 -7
-64 2 -27 7 -33 28 -35 14 -1 18 0 8 3 -26 8 -22 28 19 108 42 79 159 206 190
206 10 0 25 -6 32 -12 11 -11 13 -10 9 2 -3 9 -20 16 -45 18 -33 2 -48 -3 -84
-30z"/>
<path d="M5944 1405 c-33 -35 -82 -77 -109 -94 -27 -17 -44 -31 -38 -31 25 0
183 133 204 173 14 24 11 22 -57 -48z"/>
<path d="M5160 1338 c-26 -24 -32 -32 -15 -20 28 18 73 63 64 62 -2 -1 -24
-19 -49 -42z"/>
</g>
</svg>
