<?xml version="1.0" standalone="no"?>
<!DOCTYPE svg PUBLIC "-//W3C//DTD SVG 20010904//EN"
 "http://www.w3.org/TR/2001/REC-SVG-20010904/DTD/svg10.dtd">
<svg version="1.0" xmlns="http://www.w3.org/2000/svg"
 width="970.000000pt" height="318.000000pt" viewBox="0 0 970.000000 318.000000"
 preserveAspectRatio="xMidYMid meet">

<g transform="translate(0.000000,318.000000) scale(0.100000,-0.100000)"
fill="#000000" stroke="none">
<path d="M3185 2736 c-257 -83 -479 -228 -717 -468 l-137 -139 -56 46 c-104
85 -202 119 -324 114 -96 -5 -159 -35 -205 -97 -28 -40 -31 -51 -31 -120 0
-57 5 -88 20 -117 45 -92 164 -173 267 -183 26 -2 48 -7 48 -10 0 -2 -36 -61
-81 -131 -44 -69 -127 -201 -184 -292 -289 -465 -494 -679 -733 -766 -127 -47
-302 -40 -426 16 -152 68 -266 226 -285 394 -33 298 155 594 432 678 90 28
234 23 319 -10 241 -93 286 -393 88 -591 -72 -72 -152 -111 -225 -111 -54 0
-101 17 -124 45 -17 20 -32 21 -25 1 9 -23 83 -62 131 -70 51 -8 150 16 208
49 63 38 133 115 168 186 29 59 32 73 32 160 0 85 -3 101 -29 153 -60 117
-182 197 -335 219 -70 11 -94 10 -162 -4 -277 -58 -474 -289 -496 -583 -20
-280 145 -512 406 -566 90 -18 281 -6 366 24 309 108 510 316 885 917 187 299
178 288 271 332 45 21 80 41 77 43 -3 3 -25 -4 -49 -15 -82 -37 -85 -27 -19
63 34 45 73 97 89 116 l27 33 33 -51 33 -51 -24 -33 c-77 -103 -196 -328 -242
-457 -81 -225 -95 -434 -36 -555 31 -63 70 -88 147 -93 152 -10 254 105 293
329 11 65 12 65 41 61 74 -11 212 66 349 195 44 41 80 73 80 70 0 -2 -7 -24
-16 -48 -19 -53 -21 -137 -4 -168 13 -25 66 -51 104 -51 75 0 204 74 324 186
l72 65 -26 -58 c-61 -137 -17 -224 93 -182 46 17 132 89 195 162 57 66 61 69
108 72 27 1 67 11 89 22 23 11 41 19 41 17 0 -2 -41 -61 -91 -131 -51 -70 -92
-134 -93 -143 -1 -16 32 -25 50 -13 6 5 54 70 108 145 154 217 290 362 398
423 52 30 58 31 58 5 0 -36 -48 -119 -198 -343 -148 -223 -154 -236 -99 -237
24 0 36 15 146 185 101 157 236 308 331 371 99 67 107 53 33 -62 -167 -263
-203 -334 -203 -402 0 -45 8 -58 41 -71 52 -19 163 53 322 208 l78 76 -37 -79
c-72 -158 -35 -250 83 -205 46 17 132 89 195 162 57 66 61 69 109 72 29 1 70
13 98 28 l49 25 -29 -62 c-16 -35 -35 -88 -41 -119 -11 -52 -10 -59 8 -84 12
-16 31 -29 43 -31 38 -6 113 39 195 117 44 42 76 67 72 56 -13 -32 -19 -101
-12 -130 4 -14 18 -31 31 -37 50 -22 151 37 321 188 l83 74 -18 -43 c-54 -125
-43 -227 24 -227 33 0 113 56 186 129 62 64 65 66 53 32 -31 -87 -10 -161 45
-161 52 0 180 82 296 190 33 30 71 64 84 75 l24 20 -27 -52 c-32 -64 -57 -157
-49 -181 11 -31 36 -52 62 -52 60 0 177 76 299 194 l53 51 -21 -48 c-12 -26
-24 -69 -27 -96 -5 -44 -3 -52 21 -76 23 -23 33 -26 63 -22 75 12 177 84 306
212 l77 78 -36 -78 c-73 -157 -35 -249 83 -204 46 17 132 89 195 162 56 65 62
69 106 72 26 1 64 10 86 19 25 10 35 12 28 4 -61 -77 -182 -254 -179 -262 6
-17 36 -19 54 -5 8 8 59 74 111 149 144 203 323 378 436 425 34 14 36 14 36
-3 0 -10 -43 -81 -96 -157 -164 -241 -200 -340 -141 -391 16 -13 34 -24 41
-24 23 0 109 50 161 94 90 74 85 72 74 31 -29 -105 54 -154 180 -106 95 36
312 178 436 285 89 77 56 65 -47 -16 -105 -85 -201 -153 -270 -192 l-47 -27
42 63 c23 35 65 119 92 188 69 177 105 233 180 282 l30 20 -39 -7 c-91 -15
-201 -91 -366 -251 -58 -56 -109 -102 -115 -102 -5 0 -23 -18 -40 -41 -54 -73
-219 -201 -261 -201 -34 0 -44 27 -28 73 8 21 63 114 123 205 118 181 147 238
137 277 -14 56 -93 25 -246 -95 l-85 -66 38 74 c20 41 37 81 37 88 0 18 -32
32 -38 16 -7 -22 -105 -178 -144 -230 -45 -61 -118 -102 -180 -102 l-38 0 40
61 c75 117 99 220 60 259 -50 50 -154 7 -261 -106 -193 -204 -322 -331 -384
-379 -109 -84 -195 -106 -195 -49 0 36 89 200 201 370 94 143 110 174 90 174
-14 0 -121 -119 -197 -220 -182 -240 -464 -438 -464 -325 0 40 94 211 218 395
l117 175 43 3 c48 4 58 22 12 22 -16 0 -30 2 -30 4 0 3 56 86 125 185 69 99
125 182 125 185 0 3 -6 6 -13 6 -18 0 -167 -174 -276 -322 -39 -54 -45 -58
-81 -58 -46 0 -54 -17 -10 -22 l29 -3 -100 -148 c-86 -126 -117 -162 -211
-247 -141 -127 -232 -190 -287 -197 -37 -5 -41 -4 -41 17 0 44 141 290 267
467 24 35 42 67 38 73 -11 17 -33 11 -68 -20 -32 -27 -35 -28 -40 -11 -7 30
-54 54 -102 53 -93 -1 -190 -71 -293 -212 -127 -173 -364 -370 -444 -370 -25
0 -28 4 -28 31 0 71 98 233 448 737 119 173 152 226 142 235 -9 9 -22 1 -57
-38 -52 -56 -200 -252 -274 -362 -27 -40 -52 -73 -54 -73 -2 0 -15 11 -29 25
-49 49 -163 25 -263 -56 -23 -19 -76 -74 -118 -123 -84 -96 -148 -136 -217
-136 l-38 0 40 61 c75 117 99 220 60 259 -50 50 -155 7 -261 -107 -294 -313
-480 -470 -533 -450 -40 16 -11 85 131 312 111 178 128 214 118 245 -6 20 -12
22 -50 18 -52 -6 -118 -49 -206 -135 l-66 -65 29 61 c20 42 28 73 26 99 -3 34
-6 37 -35 40 -51 5 -123 -40 -237 -147 l-48 -46 24 40 c38 62 60 114 56 133
-4 20 -38 29 -38 10 0 -19 -110 -187 -156 -238 -45 -50 -123 -90 -176 -90
l-38 0 40 61 c104 161 105 279 3 279 -78 0 -173 -75 -304 -240 -114 -143 -246
-260 -358 -315 -58 -30 -142 -38 -164 -16 -50 51 60 299 202 453 79 85 131
115 171 98 39 -16 44 -36 19 -70 -12 -15 -18 -33 -15 -39 25 -40 66 35 45 82
-23 52 -109 62 -187 23 -58 -29 -141 -111 -195 -191 -54 -81 -216 -240 -302
-297 -74 -49 -172 -84 -205 -73 -19 6 -20 13 -16 100 5 102 15 127 91 246 96
149 213 243 269 218 35 -16 39 -36 15 -69 -12 -15 -18 -33 -15 -39 25 -40 70
45 47 88 -25 46 -115 55 -189 17 -56 -28 -141 -111 -190 -184 l-35 -53 -23
108 c-12 59 -31 135 -43 168 -12 33 -24 67 -27 76 -6 18 104 176 252 361 137
172 380 412 467 462 95 55 89 59 -28 22z m-125 -97 c-193 -157 -359 -333 -541
-575 l-71 -95 -33 48 -32 48 41 50 c169 206 407 410 599 516 61 34 71 36 37 8z
m-941 -388 c55 -22 110 -57 171 -109 l35 -30 -61 -73 c-33 -41 -86 -108 -118
-150 l-57 -77 -39 9 c-175 39 -320 160 -320 265 0 80 54 153 135 183 47 17
191 7 254 -18z m395 -459 c13 -42 31 -121 40 -175 l17 -97 -25 -68 c-38 -106
-38 -181 0 -219 23 -23 26 -32 20 -72 -19 -143 -88 -277 -161 -315 -58 -30
-135 -29 -169 3 -45 42 -61 103 -60 226 1 168 36 307 125 495 60 127 169 311
180 304 5 -3 19 -39 33 -82z m1441 -23 c16 -16 9 -81 -17 -144 -19 -48 -29
-61 -49 -63 -46 -7 -78 -56 -59 -91 7 -15 -2 -32 -50 -88 -97 -116 -218 -194
-260 -168 -59 37 203 461 338 546 45 28 72 31 97 8z m1360 0 c16 -16 9 -81
-17 -144 -19 -48 -29 -61 -49 -63 -46 -7 -78 -56 -59 -91 7 -15 -2 -32 -50
-88 -97 -116 -218 -194 -260 -168 -59 37 203 461 338 546 45 28 72 31 97 8z
m523 5 c37 -26 27 -58 -64 -197 -146 -221 -350 -406 -390 -353 -49 67 225 469
368 540 61 31 58 30 86 10z m690 -12 c22 -28 14 -48 -68 -169 -129 -191 -250
-322 -341 -369 -125 -64 -29 179 162 411 112 135 203 182 247 127z m1397 14
c26 -19 23 -76 -7 -152 -19 -47 -29 -60 -49 -62 -46 -7 -78 -56 -59 -91 7 -15
-2 -32 -50 -88 -97 -116 -218 -194 -260 -168 -60 37 204 461 339 546 51 33 60
34 86 15z m998 -38 c-29 -31 -95 -157 -133 -251 -63 -161 -110 -229 -177 -259
-48 -21 -88 -16 -103 12 -24 44 2 160 34 160 9 0 26 17 40 38 35 55 243 250
326 304 34 23 37 22 13 -4z m-6343 -450 c-1 -41 -3 -49 -11 -36 -9 16 -3 88 7
88 2 0 4 -24 4 -52z"/>
<path d="M7485 1969 c-31 -38 -32 -54 -2 -38 28 15 57 40 57 49 0 22 -32 16
-55 -11z"/>
</g>
</svg>
