<?xml version="1.0" standalone="no"?>
<!DOCTYPE svg PUBLIC "-//W3C//DTD SVG 20010904//EN"
 "http://www.w3.org/TR/2001/REC-SVG-20010904/DTD/svg10.dtd">
<svg version="1.0" xmlns="http://www.w3.org/2000/svg"
 width="796.000000pt" height="338.000000pt" viewBox="0 0 796.000000 338.000000"
 preserveAspectRatio="xMidYMid meet">

<g transform="translate(0.000000,338.000000) scale(0.100000,-0.100000)"
fill="#000000" stroke="none">
<path d="M1045 2851 c-158 -41 -269 -192 -290 -391 -12 -121 42 -284 129 -389
20 -24 36 -47 36 -52 0 -6 -23 -47 -50 -93 -162 -268 -262 -580 -247 -770 18
-241 206 -341 439 -233 118 54 219 129 367 272 205 199 431 493 552 720 24 44
70 111 102 150 112 133 169 291 147 407 -12 64 -33 101 -81 148 -126 122 -342
123 -583 3 -67 -34 -70 -34 -83 -17 -83 117 -159 186 -247 224 -55 23 -145 33
-191 21z m215 -46 c59 -30 150 -116 196 -184 l29 -44 -25 -16 c-132 -87 -361
-306 -464 -444 l-58 -78 -17 23 c-93 118 -132 342 -87 493 39 132 121 237 208
269 62 23 150 15 218 -19z m772 -125 c61 -18 120 -69 152 -133 49 -99 45 -201
-13 -323 -26 -55 -111 -178 -117 -171 -2 2 9 37 23 78 22 59 27 92 28 165 0
82 -2 94 -28 132 -69 105 -204 110 -410 15 -42 -20 -78 -34 -80 -32 -1 2 -16
34 -34 70 l-31 66 66 40 c163 100 311 131 444 93z m-488 -209 c14 -32 26 -63
26 -68 0 -6 -25 -27 -56 -47 -69 -46 -212 -182 -269 -256 -24 -31 -60 -87 -80
-125 -20 -39 -38 -72 -40 -74 -6 -5 -125 69 -125 78 0 15 146 205 226 296 85
95 260 255 279 255 7 0 24 -26 39 -59z m463 2 c19 -9 47 -34 61 -56 23 -35 27
-51 27 -116 0 -78 -15 -136 -62 -243 -20 -46 -36 -64 -84 -98 -73 -51 -162
-92 -254 -116 -102 -26 -312 -24 -419 5 -44 11 -81 23 -83 25 -15 15 102 182
196 280 67 69 188 176 200 176 11 0 30 -78 40 -166 7 -61 9 -63 10 -22 0 25
-6 81 -14 124 -17 92 -19 89 78 147 127 75 230 95 304 60z m-55 -579 c-55
-100 -104 -175 -197 -300 -292 -393 -600 -655 -818 -695 -154 -28 -267 74
-267 242 0 140 93 432 198 619 67 121 114 200 119 200 3 0 33 -17 66 -37 34
-20 63 -38 65 -39 2 -1 -4 -26 -12 -55 -21 -77 -27 -249 -7 -249 4 0 11 28 14
63 6 59 46 190 64 208 4 4 40 -2 78 -13 97 -29 358 -32 455 -5 73 20 212 84
250 115 14 11 26 19 28 18 1 -2 -15 -34 -36 -72z"/>
<path d="M6202 2679 c-101 -50 -192 -190 -334 -512 l-82 -188 -111 -65 c-117
-69 -385 -208 -390 -202 -2 2 8 36 21 76 44 137 49 283 12 372 -22 53 -88 107
-155 126 -62 18 -186 15 -233 -5 -21 -9 -18 -9 15 -3 62 11 186 8 228 -7 92
-31 135 -111 123 -231 -8 -90 -49 -228 -94 -319 l-37 -74 -177 -83 c-196 -90
-342 -170 -461 -251 -83 -56 -101 -63 -94 -35 3 9 8 34 12 56 13 80 29 97 144
152 218 106 444 281 491 380 13 28 20 60 18 83 -3 34 -5 36 -40 39 -104 9
-377 -218 -521 -432 -19 -29 -41 -46 -80 -61 -150 -61 -327 -105 -327 -81 0
18 38 113 74 185 92 181 271 394 439 522 45 34 123 82 172 105 100 48 106 57
15 20 -276 -112 -593 -469 -706 -795 l-19 -53 -80 4 c-133 7 -197 52 -197 140
0 106 101 249 254 362 55 40 39 45 -19 5 -76 -52 -175 -159 -211 -230 -58
-114 -53 -210 13 -268 38 -33 118 -61 175 -61 20 0 39 -2 42 -5 3 -3 -1 -36
-9 -73 -20 -93 -13 -249 16 -323 l21 -55 -27 -65 c-23 -55 -27 -79 -27 -164
-1 -87 2 -106 24 -148 87 -171 305 -238 546 -166 41 12 74 26 74 32 0 5 -8 6
-17 2 -138 -57 -315 -63 -429 -15 -63 27 -138 101 -165 163 -32 74 -32 179 0
270 14 37 27 67 30 67 3 0 16 -15 28 -34 30 -46 99 -101 165 -130 227 -101
583 -32 843 161 257 192 454 489 679 1025 l58 137 86 62 c281 205 433 381 436
506 1 38 -4 49 -32 74 -27 24 -41 29 -85 29 -33 0 -68 -8 -95 -21z m153 -3
c59 -25 61 -107 3 -203 -58 -96 -276 -298 -430 -397 l-27 -18 40 104 c125 322
223 477 325 513 49 18 48 18 89 1z m-1270 -706 c40 -65 -171 -249 -445 -389
-101 -53 -104 -53 -86 -25 141 217 486 486 531 414z m640 -136 c-65 -152 -204
-433 -265 -534 -119 -197 -288 -384 -428 -474 -323 -209 -721 -200 -872 19
l-32 46 35 52 c50 76 124 160 197 224 l64 56 11 -26 c15 -37 55 -77 92 -93
155 -66 447 114 631 391 37 55 76 119 86 143 18 40 27 46 165 116 80 41 193
102 250 135 58 33 106 59 108 57 2 -2 -17 -52 -42 -112z m-590 -243 c-56 -109
-221 -284 -329 -350 -167 -101 -321 -117 -358 -36 -10 22 -9 27 8 40 49 38
187 127 264 170 83 47 407 204 423 205 4 0 1 -13 -8 -29z m-696 -223 c-10 -29
-18 -71 -19 -94 0 -37 -5 -44 -66 -95 -62 -50 -168 -169 -209 -231 -9 -16 -21
-28 -26 -28 -5 0 -16 26 -26 58 -21 69 -22 241 -1 317 l14 50 66 7 c62 6 184
35 238 57 45 18 48 14 29 -41z"/>
<path d="M6195 1953 c-54 -64 -122 -150 -152 -190 -51 -69 -56 -73 -93 -73
-46 0 -54 -17 -10 -22 l30 -3 -86 -125 c-180 -263 -240 -413 -189 -470 49 -54
178 13 358 189 l68 66 -32 -70 c-67 -148 -27 -238 88 -194 47 18 129 85 193
160 59 68 63 71 108 73 101 3 160 53 405 341 24 28 27 29 43 13 28 -28 5 -76
-122 -258 -64 -91 -127 -186 -140 -212 -26 -51 -31 -97 -12 -116 36 -36 120 9
293 159 163 142 163 142 125 80 -65 -105 -84 -186 -54 -229 32 -46 102 -18
218 89 l59 54 -78 -115 c-44 -63 -86 -125 -96 -137 -9 -12 -70 -61 -135 -109
-302 -219 -488 -407 -565 -569 -64 -133 -20 -179 107 -115 125 62 322 289 612
707 89 128 96 134 218 224 186 136 381 296 372 305 -3 2 -52 -35 -109 -82 -95
-79 -314 -248 -348 -269 -8 -4 0 12 16 36 213 310 366 536 370 547 3 7 -3 12
-14 12 -22 0 -100 -89 -228 -259 -95 -126 -232 -267 -298 -305 -154 -90 -70
104 195 453 44 57 76 107 71 112 -15 15 -75 -35 -143 -117 -78 -95 -140 -156
-285 -284 -174 -152 -247 -202 -267 -182 -15 15 7 56 114 215 56 83 114 176
130 205 34 66 37 127 7 165 -16 21 -18 31 -10 46 19 35 14 61 -13 61 -28 0
-40 -25 -30 -64 7 -29 -15 -58 -181 -240 -97 -107 -158 -146 -227 -146 l-38 0
40 61 c103 159 105 279 5 279 -76 0 -153 -59 -307 -235 -58 -66 -128 -141
-154 -166 -168 -160 -314 -231 -314 -154 0 40 94 211 218 395 l117 175 43 3
c48 4 58 22 12 22 -16 0 -30 2 -30 4 0 3 56 86 125 185 69 99 125 182 125 185
0 3 -6 6 -14 6 -7 0 -57 -53 -111 -117z m330 -327 c26 -19 23 -76 -7 -152 -19
-47 -29 -60 -49 -62 -46 -7 -78 -56 -59 -91 7 -15 -2 -32 -50 -88 -119 -141
-270 -221 -270 -142 0 83 211 412 323 502 61 50 81 56 112 33z m430 -900
c-271 -388 -433 -566 -516 -566 -33 0 -42 21 -29 69 25 94 149 252 312 398 95
84 340 274 346 268 2 -1 -49 -77 -113 -169z"/>
<path d="M2745 1749 c-4 -6 -4 -26 0 -45 6 -33 1 -41 -67 -122 -87 -103 -346
-360 -438 -433 -71 -57 -143 -94 -166 -85 -42 16 19 146 177 380 63 92 120
176 128 187 12 17 11 19 -12 19 -35 0 -126 -100 -223 -246 -120 -181 -217
-292 -288 -330 -25 -14 -30 -14 -43 -1 -14 14 -14 21 1 64 21 61 112 213 227
377 92 131 103 166 37 121 -111 -76 -307 -391 -310 -498 -1 -53 21 -87 56 -87
40 0 117 61 195 155 19 22 30 31 27 20 -4 -11 -12 -44 -18 -72 -9 -45 -8 -56
7 -79 42 -64 152 -1 384 220 128 122 231 231 324 341 22 26 27 28 42 15 33
-28 5 -85 -140 -285 -126 -174 -168 -268 -133 -303 22 -22 64 -13 125 27 93
60 390 320 367 321 -6 0 -62 -46 -125 -103 -214 -193 -309 -261 -331 -239 -15
15 5 52 113 214 57 84 115 177 131 207 34 65 37 127 7 164 -16 21 -18 31 -10
46 19 35 14 61 -13 61 -14 0 -28 -5 -31 -11z"/>
</g>
</svg>
