<?xml version="1.0" standalone="no"?>
<!DOCTYPE svg PUBLIC "-//W3C//DTD SVG 20010904//EN"
 "http://www.w3.org/TR/2001/REC-SVG-20010904/DTD/svg10.dtd">
<svg version="1.0" xmlns="http://www.w3.org/2000/svg"
 width="1068.000000pt" height="299.000000pt" viewBox="0 0 1068.000000 299.000000"
 preserveAspectRatio="xMidYMid meet">

<g transform="translate(0.000000,299.000000) scale(0.100000,-0.100000)"
fill="#000000" stroke="none">
<path d="M2092 2764 c-1 -42 -4 -80 -9 -84 -4 -5 -37 -2 -73 6 -182 39 -405
36 -545 -7 -306 -93 -447 -361 -268 -508 46 -38 89 -51 172 -51 230 0 566 214
682 435 18 33 33 61 34 62 2 4 387 -125 393 -132 3 -3 -10 -22 -30 -43 -59
-62 -151 -190 -294 -409 -311 -473 -387 -587 -472 -699 -299 -397 -567 -584
-835 -584 -305 0 -556 186 -627 466 -44 170 -19 369 67 544 61 124 180 249
288 302 303 152 650 41 744 -238 55 -164 23 -353 -77 -457 -60 -63 -125 -91
-207 -90 -124 1 -213 52 -261 149 -23 48 -26 63 -21 117 3 34 9 73 13 87 12
45 -12 8 -30 -44 -67 -205 66 -381 288 -379 192 2 326 129 371 352 54 265
-102 496 -385 567 -96 24 -272 15 -362 -18 -329 -123 -526 -500 -453 -866 50
-247 215 -420 466 -489 100 -28 301 -25 399 6 176 54 312 143 486 316 199 198
328 369 610 812 149 236 333 512 371 560 l18 22 85 -21 c47 -11 89 -24 93 -28
5 -4 -18 -41 -51 -81 -95 -118 -268 -361 -414 -581 -356 -536 -418 -633 -413
-646 3 -7 15 -12 27 -10 17 2 53 47 135 168 128 190 254 321 361 378 74 39
119 54 127 42 8 -13 -19 -63 -74 -140 -88 -121 -150 -234 -168 -302 -17 -66
-17 -68 3 -95 51 -68 131 -32 341 154 l73 64 -26 -55 c-13 -30 -27 -77 -31
-104 -5 -45 -3 -53 20 -76 14 -14 35 -26 45 -26 57 0 153 57 257 151 36 33 68
59 70 59 3 0 -25 -41 -61 -92 -37 -50 -67 -99 -68 -107 -1 -17 32 -26 50 -14
5 5 60 78 121 163 149 209 313 368 428 416 32 13 35 13 35 -2 0 -9 -45 -83
-100 -166 -177 -263 -202 -343 -125 -394 24 -15 28 -15 68 0 51 19 150 98 260
205 l78 76 -36 -76 c-44 -94 -56 -171 -30 -199 10 -11 29 -20 42 -20 37 0 115
44 189 107 l69 58 -95 -138 c-86 -126 -102 -144 -175 -195 -320 -224 -573
-487 -620 -644 -13 -46 -13 -54 0 -75 21 -31 49 -29 126 9 125 62 321 284 583
662 l122 176 164 121 c89 66 160 113 156 104 -3 -10 -11 -37 -17 -61 -27 -105
55 -153 180 -105 95 36 312 178 436 285 89 77 56 65 -47 -16 -105 -85 -201
-153 -270 -192 l-47 -27 42 63 c23 35 65 119 92 188 69 177 105 233 180 282
l30 20 -39 -7 c-84 -14 -191 -85 -340 -225 -126 -117 -456 -380 -478 -380 -6
0 220 335 338 503 52 72 38 105 -22 54 l-26 -23 -28 28 c-17 16 -40 28 -57 29
-127 5 -160 -17 -408 -266 -266 -268 -375 -348 -414 -301 -20 24 9 82 126 262
120 183 149 240 139 279 -14 56 -93 25 -246 -95 l-85 -66 39 77 c37 75 41 109
13 109 -7 0 -21 -17 -31 -37 -93 -195 -386 -496 -527 -542 -45 -14 -69 -6 -69
25 0 36 90 201 201 370 93 141 110 174 91 174 -13 0 -106 -100 -184 -200 -139
-176 -399 -387 -452 -367 -25 10 -19 58 12 118 16 30 74 125 130 212 103 162
123 207 102 232 -33 39 -173 -10 -280 -97 -30 -24 -61 -48 -69 -53 -8 -4 30
57 85 137 92 135 107 152 224 249 69 57 204 181 300 276 l174 173 101 5 c100
4 198 26 211 47 5 8 -2 9 -22 4 -16 -4 -82 -10 -147 -13 l-118 -5 36 58 c36
60 45 110 23 132 -35 35 -139 -4 -231 -88 l-56 -51 -97 27 -97 28 79 75 c44
42 99 85 122 95 23 11 42 23 42 28 0 12 -6 11 -68 -21 -49 -25 -101 -61 -202
-140 l-25 -20 -217 62 -217 62 6 88 c4 58 2 87 -5 87 -6 0 -10 -30 -10 -76z
m-333 -74 c78 -8 298 -55 309 -65 2 -2 -8 -26 -22 -53 -124 -245 -533 -482
-749 -433 -63 14 -132 67 -153 118 -74 175 143 396 424 432 93 12 86 12 191 1z
m1299 -92 c17 -17 15 -38 -10 -84 -50 -89 -47 -88 -127 -74 -39 6 -71 16 -71
22 0 16 100 115 133 132 39 19 59 20 75 4z m-160 -204 c28 -3 52 -9 52 -13 0
-19 -496 -491 -516 -491 -3 0 10 21 28 48 19 26 63 88 98 137 218 307 242 337
264 331 11 -3 45 -8 74 -12z m1250 -710 c40 -28 29 -61 -69 -194 -50 -69 -114
-149 -143 -178 -115 -120 -251 -207 -282 -182 -21 18 -18 38 20 115 90 187
347 455 436 455 9 0 26 -7 38 -16z m456 -36 c-36 -41 -70 -102 -108 -193 -98
-235 -134 -290 -207 -319 -71 -29 -109 -4 -109 71 1 51 20 91 50 106 14 7 26
22 28 33 4 31 326 319 361 323 3 1 -4 -9 -15 -21z m-910 -710 c-21 -35 -207
-296 -280 -394 -151 -201 -278 -324 -335 -324 -61 0 -50 67 31 188 105 157
277 322 504 485 83 60 92 65 80 45z"/>
<path d="M9641 2679 c-84 -14 -254 -74 -351 -124 l-87 -46 -94 33 c-87 30
-104 32 -224 32 -141 1 -208 -12 -345 -66 -336 -132 -655 -469 -741 -784 -28
-101 -23 -224 10 -301 l23 -53 -30 -47 c-62 -96 -94 -180 -126 -324 -6 -25 -8
-26 -83 -28 -138 -2 -228 -29 -258 -75 -36 -55 18 -79 173 -76 59 1 120 2 135
3 28 2 29 0 52 -90 53 -206 177 -361 335 -419 69 -24 160 -35 222 -25 61 10
134 38 125 47 -3 4 -25 -1 -49 -11 -23 -9 -72 -19 -108 -22 -212 -18 -417 143
-494 387 -13 41 -26 90 -28 109 l-3 34 71 22 c40 12 92 34 118 48 44 24 48 25
97 12 203 -54 469 -42 688 31 415 138 751 508 826 909 47 246 -30 466 -208
596 l-38 27 75 47 c227 141 445 188 580 124 54 -25 101 -77 110 -121 22 -110
-100 -227 -206 -198 -38 11 -68 46 -68 80 0 11 -4 20 -10 20 -14 0 -13 -15 4
-54 10 -24 25 -38 57 -50 138 -55 282 99 221 236 -46 104 -185 148 -371 117z
m-521 -160 l64 -22 -24 -16 c-192 -125 -429 -351 -596 -566 -122 -158 -165
-222 -324 -480 -156 -254 -238 -377 -292 -438 l-43 -49 -65 11 c-36 6 -84 11
-108 11 l-43 0 7 38 c19 103 84 264 130 320 l19 22 49 -25 c62 -31 107 -31
173 -1 63 30 113 93 113 142 0 39 -38 74 -80 74 -39 0 -142 -54 -198 -106
l-50 -44 -17 43 c-75 183 33 465 273 710 201 205 433 341 672 392 94 21 257
13 340 -16z m190 -105 c127 -115 178 -321 132 -530 -27 -122 -72 -235 -135
-338 -192 -316 -467 -526 -802 -612 -135 -35 -313 -43 -444 -20 -51 9 -98 19
-103 22 -5 3 21 37 58 76 90 96 205 253 380 519 168 255 224 333 340 474 104
127 304 323 413 403 93 69 91 69 161 6z m-1156 -914 c63 -61 -89 -208 -193
-185 -38 8 -91 42 -91 59 0 27 119 117 187 141 43 16 69 11 97 -15z m-484
-599 l0 -59 -76 -7 c-98 -10 -219 -2 -239 15 -9 7 -15 22 -13 33 6 42 112 74
256 76 l72 1 0 -59z m178 42 c25 -4 30 -8 22 -18 -12 -14 -111 -60 -152 -70
l-28 -7 0 57 0 58 63 -7 c34 -4 77 -9 95 -13z"/>
<path d="M6034 2073 c-66 -76 -160 -194 -213 -265 -39 -54 -45 -58 -81 -58
-46 0 -54 -17 -11 -22 l30 -3 -95 -140 c-111 -165 -168 -270 -188 -349 -16
-59 -13 -79 12 -108 44 -51 178 18 340 176 l63 61 -27 -60 c-61 -139 -18 -226
93 -184 46 17 132 89 195 163 57 65 61 68 106 70 26 1 67 12 92 24 50 25 115
80 106 90 -4 3 -21 -8 -39 -26 -41 -40 -112 -71 -159 -72 l-38 0 40 61 c104
161 105 279 3 279 -77 0 -172 -75 -304 -240 -198 -246 -459 -425 -459 -315 0
40 94 211 218 395 l117 175 43 3 c48 4 58 22 12 22 -16 0 -30 2 -30 4 0 3 56
86 125 185 69 99 125 182 125 185 0 20 -33 -2 -76 -51z m270 -386 c26 -19 23
-80 -6 -153 -19 -47 -29 -60 -49 -62 -46 -7 -78 -56 -59 -91 7 -15 -2 -32 -50
-88 -97 -116 -218 -194 -260 -168 -59 37 204 461 338 546 52 33 61 34 86 16z"/>
<path d="M3035 1879 c-31 -38 -32 -54 -2 -38 28 15 57 40 57 49 0 22 -32 16
-55 -11z"/>
<path d="M9764 1681 c-146 -84 -334 -355 -338 -487 -2 -72 47 -101 121 -73 48
18 129 85 194 161 49 57 68 72 86 70 45 -6 129 27 177 69 26 23 44 44 41 47
-3 3 -20 -8 -38 -26 -41 -40 -112 -71 -159 -72 l-38 0 40 61 c47 73 80 157 80
204 0 77 -75 98 -166 46z m130 6 c26 -19 23 -80 -6 -153 -19 -47 -29 -60 -49
-62 -46 -7 -78 -56 -59 -91 7 -15 -2 -32 -50 -88 -99 -118 -228 -199 -262
-165 -49 49 208 459 340 543 52 33 61 34 86 16z"/>
</g>
</svg>
